<mxfile host="app.diagrams.net" modified="2021-07-13T02:46:12.125Z" agent="5.0 (Windows NT 10.0; Win64; x64) AppleWebKit/537.36 (KHTML, like Gecko) Chrome/91.0.4472.124 Safari/537.36" etag="EORtY1Hu_L9HuIDhO6EK" version="14.8.6" type="github">
  <diagram id="C5RBs43oDa-KdzZeNtuy" name="Page-1">
    <mxGraphModel dx="1753" dy="922" grid="1" gridSize="10" guides="1" tooltips="1" connect="1" arrows="1" fold="1" page="1" pageScale="1" pageWidth="827" pageHeight="1169" math="0" shadow="0">
      <root>
        <mxCell id="WIyWlLk6GJQsqaUBKTNV-0" />
        <mxCell id="WIyWlLk6GJQsqaUBKTNV-1" parent="WIyWlLk6GJQsqaUBKTNV-0" />
        <mxCell id="oj39oj9uzNdNI4m1gCSo-2" value="" style="edgeStyle=orthogonalEdgeStyle;rounded=0;orthogonalLoop=1;jettySize=auto;html=1;" edge="1" parent="WIyWlLk6GJQsqaUBKTNV-1" source="oj39oj9uzNdNI4m1gCSo-0" target="oj39oj9uzNdNI4m1gCSo-1">
          <mxGeometry relative="1" as="geometry" />
        </mxCell>
        <mxCell id="oj39oj9uzNdNI4m1gCSo-0" value="模型解密" style="rounded=1;whiteSpace=wrap;html=1;" vertex="1" parent="WIyWlLk6GJQsqaUBKTNV-1">
          <mxGeometry x="270" y="80" width="120" height="60" as="geometry" />
        </mxCell>
        <mxCell id="oj39oj9uzNdNI4m1gCSo-4" value="" style="edgeStyle=orthogonalEdgeStyle;rounded=0;orthogonalLoop=1;jettySize=auto;html=1;" edge="1" parent="WIyWlLk6GJQsqaUBKTNV-1" source="oj39oj9uzNdNI4m1gCSo-1" target="oj39oj9uzNdNI4m1gCSo-3">
          <mxGeometry relative="1" as="geometry" />
        </mxCell>
        <mxCell id="oj39oj9uzNdNI4m1gCSo-1" value="通过websocket&lt;br&gt;传到1808" style="shape=parallelogram;perimeter=parallelogramPerimeter;whiteSpace=wrap;html=1;fixedSize=1;rounded=1;" vertex="1" parent="WIyWlLk6GJQsqaUBKTNV-1">
          <mxGeometry x="270" y="220" width="120" height="60" as="geometry" />
        </mxCell>
        <mxCell id="oj39oj9uzNdNI4m1gCSo-6" value="" style="edgeStyle=orthogonalEdgeStyle;rounded=0;orthogonalLoop=1;jettySize=auto;html=1;" edge="1" parent="WIyWlLk6GJQsqaUBKTNV-1" source="oj39oj9uzNdNI4m1gCSo-3" target="oj39oj9uzNdNI4m1gCSo-5">
          <mxGeometry relative="1" as="geometry" />
        </mxCell>
        <mxCell id="oj39oj9uzNdNI4m1gCSo-3" value="使用密钥解密&lt;br&gt;并保存成模型文件" style="shape=parallelogram;perimeter=parallelogramPerimeter;whiteSpace=wrap;html=1;fixedSize=1;rounded=1;" vertex="1" parent="WIyWlLk6GJQsqaUBKTNV-1">
          <mxGeometry x="270" y="360" width="120" height="60" as="geometry" />
        </mxCell>
        <mxCell id="oj39oj9uzNdNI4m1gCSo-8" value="" style="edgeStyle=orthogonalEdgeStyle;rounded=0;orthogonalLoop=1;jettySize=auto;html=1;" edge="1" parent="WIyWlLk6GJQsqaUBKTNV-1" source="oj39oj9uzNdNI4m1gCSo-5" target="oj39oj9uzNdNI4m1gCSo-7">
          <mxGeometry relative="1" as="geometry" />
        </mxCell>
        <mxCell id="oj39oj9uzNdNI4m1gCSo-5" value="load模型" style="shape=parallelogram;perimeter=parallelogramPerimeter;whiteSpace=wrap;html=1;fixedSize=1;rounded=1;" vertex="1" parent="WIyWlLk6GJQsqaUBKTNV-1">
          <mxGeometry x="270" y="500" width="120" height="60" as="geometry" />
        </mxCell>
        <mxCell id="oj39oj9uzNdNI4m1gCSo-10" value="" style="edgeStyle=orthogonalEdgeStyle;rounded=0;orthogonalLoop=1;jettySize=auto;html=1;" edge="1" parent="WIyWlLk6GJQsqaUBKTNV-1" source="oj39oj9uzNdNI4m1gCSo-7" target="oj39oj9uzNdNI4m1gCSo-9">
          <mxGeometry relative="1" as="geometry" />
        </mxCell>
        <mxCell id="oj39oj9uzNdNI4m1gCSo-7" value="删除解密模型" style="shape=parallelogram;perimeter=parallelogramPerimeter;whiteSpace=wrap;html=1;fixedSize=1;rounded=1;" vertex="1" parent="WIyWlLk6GJQsqaUBKTNV-1">
          <mxGeometry x="270" y="640" width="120" height="60" as="geometry" />
        </mxCell>
        <mxCell id="oj39oj9uzNdNI4m1gCSo-9" value="结束" style="whiteSpace=wrap;html=1;rounded=1;" vertex="1" parent="WIyWlLk6GJQsqaUBKTNV-1">
          <mxGeometry x="270" y="780" width="120" height="60" as="geometry" />
        </mxCell>
      </root>
    </mxGraphModel>
  </diagram>
</mxfile>
